<svg xmlns="http://www.w3.org/2000/svg" width="17" height="16" viewBox="0 0 17 16" fill="none">
<path d="M8.49967 14.6666C12.1816 14.6666 15.1663 11.6818 15.1663 7.99992C15.1663 4.31802 12.1816 1.33325 8.49967 1.33325C4.81778 1.33325 1.83301 4.31802 1.83301 7.99992C1.83301 11.6818 4.81778 14.6666 8.49967 14.6666Z" stroke="black" stroke-width="1.33333" stroke-linecap="round" stroke-linejoin="round"/>
<path d="M6.55957 6.00014C6.71631 5.55458 7.02567 5.17887 7.43287 4.93956C7.84008 4.70024 8.31883 4.61276 8.78435 4.69261C9.24988 4.77246 9.67211 5.01449 9.97629 5.37582C10.2805 5.73716 10.4469 6.19448 10.4462 6.6668C10.4462 8.00014 8.44624 8.6668 8.44624 8.6668" stroke="black" stroke-width="1.33333" stroke-linecap="round" stroke-linejoin="round"/>
<path d="M8.5 11.3334H8.50667" stroke="black" stroke-width="1.33333" stroke-linecap="round" stroke-linejoin="round"/>
</svg>