<svg viewBox="0 0 60 60" xmlns="http://www.w3.org/2000/svg" data-sanitized-data-name="图层 1" data-name="图层 1" id="图层_1"><defs><style>.cls-1{fill:#1a121f;}.cls-1,.cls-2,.cls-3,.cls-4{fill-rule:evenodd;}.cls-2{fill:#26f4ee;}.cls-3{fill:#fb2c53;}.cls-4{fill:#fefefe;}</style></defs><title>社交媒体logo</title><path d="M30,4.12A25.88,25.88,0,1,1,4.12,30,25.88,25.88,0,0,1,30,4.12Z" class="cls-1"></path><path d="M35.19,14c.5,4.24,3,7.24,7.16,7.5v4h0V22.12c-4.11-.26-6.48-2.79-7-7H31V32.93c.63,8-5.63,8.28-8,5.23,2.81,1.76,7.37.61,6.83-6.3V14ZM23.49,43.6a9.23,9.23,0,0,1-6-4.13c-3.19-5.22-.31-13.74,9-14.61v1.26C17.82,27.48,17,36.71,19.33,40.55a7.36,7.36,0,0,0,4.16,3.05Z" class="cls-2"></path><path d="M36.44,15.35a9.63,9.63,0,0,0,2.64,5.93c-2.06-1.07-3.31-3.1-3.7-5.93ZM42.32,23a7.51,7.51,0,0,0,1.1.14v4.78c-2.39.23-4.48-.56-6.91-2l.37,8.17c0,2.64,0,3.84-1.4,6.26-3.45,5.91-9.89,5.91-13.7,2.54,5,2.86,13.65.62,13.63-9.07V24.88c2.44,1.46,4.52,2.25,6.91,2V23ZM26.41,26.43A14.43,14.43,0,0,1,28,26.2v5c-2,.33-3.28.94-3.88,2.08A4.49,4.49,0,0,0,26.5,40a4.53,4.53,0,0,1-3.78-6.91c.59-1.14,1.68-1.76,3.69-2.09V26.43Z" class="cls-3"></path><path d="M35.34,15.08c.5,4.25,2.87,6.78,7,7v4.77c-2.39.23-4.47-.55-6.91-2v8.91c0,11.64-12.5,12.53-16.08,6.76C17,36.71,17.82,27.48,26.41,26.12V31c-2,.33-3.1.95-3.69,2.09-3.68,7,9.16,11.22,8.27-.12V15.08Z" class="cls-4"></path></svg>