<svg xml:space="preserve" style="enable-background:new 0 0 16 16;" viewBox="0 0 16 16" y="0px" x="0px" xmlns:xlink="http://www.w3.org/1999/xlink" xmlns="http://www.w3.org/2000/svg" id="图层_1" version="1.1">
<style type="text/css">
	.st0{fill:none;}
	.st1{fill:none;stroke:#2F2725;stroke-linejoin:round;}
</style>
<rect height="16" width="16" class="st0" y="0"></rect>
<path d="M14.8,2.5v2.6c0,0.2-0.2,0.4-0.4,0.4c-0.1,0-0.1,0-0.2,0l-1-0.4v0.3c0,0.2-0.2,0.4-0.4,0.4H8.8
	c-0.2,0-0.4-0.2-0.4-0.4V2.1c0-0.2,0.2-0.4,0.4-0.4h3.9c0.2,0,0.4,0.2,0.4,0.4v0.3l1-0.4c0.2-0.1,0.5,0,0.6,0.3
	C14.8,2.3,14.8,2.4,14.8,2.5z" class="st1"></path>
<path d="M12.9,11.5v1.7c0,1.1-1.1,2-2.2,1.6c-1.7-0.6-4.3-1.7-6-3.4C3,9.8,1.9,7.1,1.3,5.4C0.9,4.3,1.8,3.3,2.9,3.3h1.7
	c0.4,0,0.8,0.2,1,0.6l0.8,1.5c0.2,0.3,0.2,0.7,0,1L5.7,7.7l0,0c0,0.1,0.1,0.3,0.2,0.4C6,8.5,6.3,9,6.7,9.4c0.4,0.4,0.9,0.7,1.3,0.8
	c0.2,0.1,0.3,0.1,0.5,0.2l1.4-0.7c0.3-0.2,0.7-0.2,1,0l1.5,0.8C12.7,10.8,12.9,11.1,12.9,11.5z" class="st1"></path>
</svg>
