<svg width="24" height="24" viewBox="0 0 24 24" fill="none" xmlns="http://www.w3.org/2000/svg">
<path d="M15.6364 3.81836H2V15.6365H15.6364V3.81836Z" stroke="#2F2725" stroke-width="1.5" stroke-linecap="round" stroke-linejoin="round"></path>
<path d="M15.6328 8.36328H19.2692L21.9964 11.0906V15.636H15.6328V8.36328Z" stroke="#2F2725" stroke-width="1.5" stroke-linecap="round" stroke-linejoin="round"></path>
<path d="M6.09304 20.1822C7.34823 20.1822 8.36577 19.1646 8.36577 17.9094C8.36577 16.6543 7.34823 15.6367 6.09304 15.6367C4.83785 15.6367 3.82031 16.6543 3.82031 17.9094C3.82031 19.1646 4.83785 20.1822 6.09304 20.1822Z" stroke="#2F2725" stroke-width="1.5" stroke-linecap="round" stroke-linejoin="round"></path>
<path d="M17.9055 20.1822C19.1607 20.1822 20.1783 19.1646 20.1783 17.9094C20.1783 16.6543 19.1607 15.6367 17.9055 15.6367C16.6503 15.6367 15.6328 16.6543 15.6328 17.9094C15.6328 19.1646 16.6503 20.1822 17.9055 20.1822Z" stroke="#2F2725" stroke-width="1.5" stroke-linecap="round" stroke-linejoin="round"></path>
</svg>
