<svg xmlns="http://www.w3.org/2000/svg" fill="none" viewBox="0 0 32 32" height="32" width="32">
<path stroke-width="0.160148" stroke="url(#paint1_linear_1672_6576)" fill="url(#paint0_linear_1672_6576)" d="M7.09346 12.4678V21.6719C7.09346 22.1407 7.09388 22.5942 7.14815 23.0078C7.2025 23.422 7.31218 23.8025 7.53584 24.125C7.97964 24.7645 8.84951 25.1435 10.5153 25.1553V28.4834C10.5156 29.4684 11.3401 30.2656 12.323 30.2656C13.3057 30.2654 14.1293 29.4683 14.1296 28.4834V25.1953H17.2946V28.4834C17.2949 29.4684 18.1193 30.2656 19.1022 30.2656C20.0851 30.2654 20.9086 29.4683 20.9089 28.4834V25.1553C22.6489 25.1091 24.3307 23.5704 24.3308 21.6719V12.4678H7.09346ZM27.9118 13.0781C26.9279 13.0782 26.121 13.8747 26.1208 14.8604V21.6719C26.1208 22.6561 26.9278 23.455 27.9118 23.4551C28.8959 23.4551 29.7028 22.6561 29.7028 21.6719V14.8604C29.7026 13.8747 28.8958 13.0781 27.9118 13.0781ZM4.0876 13.0781C3.10397 13.0784 2.29776 13.8748 2.29756 14.8604V21.6719C2.2976 22.656 3.10382 23.4548 4.0876 23.4551C5.07159 23.4551 5.87858 22.6561 5.87862 21.6719V14.8604C5.87842 13.8747 5.07144 13.0781 4.0876 13.0781ZM19.5964 1.73438V4.71289C19.4852 4.69181 19.3729 4.67375 19.2595 4.65918C19.2398 4.526 19.1782 4.33162 19.0573 4.15918C18.9109 3.95042 18.6746 3.76562 18.3249 3.76562H13.2507C12.9038 3.76579 12.6536 3.94705 12.4919 4.15234C12.3572 4.32347 12.281 4.51912 12.2556 4.65527C12.0915 4.67531 11.9298 4.70374 11.7702 4.7373V1.73438H9.84932V5.52148C8.25137 6.54122 7.1806 8.3194 7.15303 10.3398H7.1501V10.8545H24.3308V10.4199C24.3308 8.31876 23.1994 6.46997 21.5173 5.4502V1.73438H19.5964ZM21.3317 8.03906H19.7829V6.49023H21.3317V8.03906ZM11.6101 7.96582H10.0612V6.42676H11.6101V7.96582Z"></path>
<defs>
<linearGradient gradientUnits="userSpaceOnUse" y2="26.3438" x2="16" y1="1.81445" x1="16" id="paint0_linear_1672_6576">
<stop stop-color="#CBE0F9"></stop>
<stop stop-color="#384452" offset="1"></stop>
</linearGradient>
<linearGradient gradientUnits="userSpaceOnUse" y2="30.1857" x2="16" y1="1.81445" x1="16" id="paint1_linear_1672_6576">
<stop stop-color="white"></stop>
<stop stop-color="#85BBFF" offset="0.600962"></stop>
<stop stop-opacity="0" stop-color="#6A86AB" offset="1"></stop>
</linearGradient>
</defs>
</svg>
