<svg viewBox="0 0 60 60" xmlns="http://www.w3.org/2000/svg" data-sanitized-data-name="图层 1" data-name="图层 1" id="图层_1"><defs><style>.cls-1{fill:#fff;}.cls-1,.cls-2{fill-rule:evenodd;}.cls-2{fill:red;}</style></defs><title>社交媒体logo</title><path d="M30,4.12A25.88,25.88,0,1,1,4.12,30,25.88,25.88,0,0,1,30,4.12Z" class="cls-1"></path><path d="M48.48,22.46s-.37-2.6-1.51-3.74a5.36,5.36,0,0,0-3.78-1.6C37.92,16.73,30,16.73,30,16.73h0s-7.91,0-13.19.39A5.36,5.36,0,0,0,13,18.72c-1.13,1.14-1.5,3.74-1.5,3.74a58.11,58.11,0,0,0-.37,6.11v2.86a58.05,58.05,0,0,0,.37,6.1s.37,2.6,1.5,3.75c1.43,1.5,3.32,1.45,4.16,1.61,3,.29,12.83.38,12.83.38s7.93,0,13.2-.4A5.34,5.34,0,0,0,47,41.28c1.14-1.15,1.5-3.75,1.5-3.75a56.61,56.61,0,0,0,.38-6.11V28.56a59.68,59.68,0,0,0-.38-6.1ZM26.09,34.89V24.29l10.19,5.32Z" class="cls-2"></path></svg>