<svg xmlns="http://www.w3.org/2000/svg" fill="none" viewBox="0 0 32 32" height="32" width="32">
<mask fill="black" height="29" width="24" y="1" x="4" maskUnits="userSpaceOnUse" id="path-1-outside-1_1672_6578">
<rect height="29" width="24" y="1" x="4" fill="white"></rect>
<path d="M27.3727 21.9775C27.3383 22.0809 26.7989 23.9469 25.4739 25.8665C24.3263 27.5223 23.1391 29.192 21.2661 29.2213C19.4224 29.2541 18.8331 28.1306 16.7292 28.1306C14.6288 28.1306 13.9689 29.192 12.2269 29.2541C10.4262 29.3265 9.03915 27.4448 7.88983 25.7976C5.53438 22.422 3.72345 16.2327 6.15295 12.0852C7.35052 10.0089 9.49919 8.6908 11.8391 8.65289C13.6035 8.6201 15.2818 9.83835 16.3537 9.83835C17.4546 9.83835 19.4844 8.36507 21.6262 8.58564C22.5223 8.62355 25.031 8.95608 26.6473 11.2806C26.5216 11.3667 23.6457 13.0484 23.6784 16.4739C23.7215 20.6076 27.3348 21.9637 27.3727 21.9775ZM20.2254 6.36981C21.1903 5.20149 21.8261 3.59558 21.659 2C20.2806 2.05347 18.5988 2.90807 17.6011 4.07118C16.7172 5.08431 15.9401 6.71613 16.1572 8.2927C17.689 8.38408 19.2639 7.49668 20.2236 6.36981"></path>
</mask>
<path fill="url(#paint0_linear_1672_6578)" d="M27.3727 21.9775C27.3383 22.0809 26.7989 23.9469 25.4739 25.8665C24.3263 27.5223 23.1391 29.192 21.2661 29.2213C19.4224 29.2541 18.8331 28.1306 16.7292 28.1306C14.6288 28.1306 13.9689 29.192 12.2269 29.2541C10.4262 29.3265 9.03915 27.4448 7.88983 25.7976C5.53438 22.422 3.72345 16.2327 6.15295 12.0852C7.35052 10.0089 9.49919 8.6908 11.8391 8.65289C13.6035 8.6201 15.2818 9.83835 16.3537 9.83835C17.4546 9.83835 19.4844 8.36507 21.6262 8.58564C22.5223 8.62355 25.031 8.95608 26.6473 11.2806C26.5216 11.3667 23.6457 13.0484 23.6784 16.4739C23.7215 20.6076 27.3348 21.9637 27.3727 21.9775ZM20.2254 6.36981C21.1903 5.20149 21.8261 3.59558 21.659 2C20.2806 2.05347 18.5988 2.90807 17.6011 4.07118C16.7172 5.08431 15.9401 6.71613 16.1572 8.2927C17.689 8.38408 19.2639 7.49668 20.2236 6.36981"></path>
<path mask="url(#path-1-outside-1_1672_6578)" fill="url(#paint1_linear_1672_6578)" d="M27.3727 21.9775L27.5246 22.0281L27.5739 21.8803L27.4274 21.827L27.3727 21.9775ZM25.4739 25.8665L25.6055 25.9577L25.6057 25.9575L25.4739 25.8665ZM21.2661 29.2213L21.2636 29.0612L21.2633 29.0612L21.2661 29.2213ZM12.2269 29.2541L12.2212 29.094L12.2204 29.0941L12.2269 29.2541ZM7.88983 25.7976L8.02117 25.7059L8.02117 25.7059L7.88983 25.7976ZM6.15295 12.0852L6.29114 12.1661L6.29168 12.1652L6.15295 12.0852ZM11.8391 8.65289L11.8417 8.81302L11.8421 8.81301L11.8391 8.65289ZM21.6262 8.58564L21.6098 8.74524L21.6195 8.74564L21.6262 8.58564ZM26.6473 11.2806L26.7378 11.4128L26.8709 11.3216L26.7788 11.1892L26.6473 11.2806ZM23.6784 16.4739L23.5183 16.4754L23.5183 16.4756L23.6784 16.4739ZM21.659 2L21.8183 1.98332L21.8027 1.83416L21.6528 1.83997L21.659 2ZM17.6011 4.07118L17.7218 4.17647L17.7227 4.17544L17.6011 4.07118ZM16.1572 8.2927L15.9986 8.31455L16.0165 8.44473L16.1477 8.45256L16.1572 8.2927ZM27.3727 21.9775L27.2208 21.9268C27.1859 22.0314 26.6526 23.877 25.3421 25.7755L25.4739 25.8665L25.6057 25.9575C26.9453 24.0169 27.4906 22.1303 27.5246 22.0281L27.3727 21.9775ZM25.4739 25.8665L25.3422 25.7753C24.7667 26.6058 24.1924 27.4224 23.5329 28.0367C22.8765 28.6479 22.1477 29.0474 21.2636 29.0612L21.2661 29.2213L21.2686 29.3814C22.2575 29.366 23.0588 28.9159 23.7512 28.2711C24.4403 27.6292 25.0335 26.783 25.6055 25.9577L25.4739 25.8665ZM21.2661 29.2213L21.2633 29.0612C20.3794 29.0769 19.7996 28.818 19.1587 28.5412C18.513 28.2623 17.815 27.9704 16.7292 27.9704V28.1306V28.2907C17.7473 28.2907 18.3959 28.5606 19.0317 28.8352C19.6724 29.112 20.3091 29.3985 21.269 29.3814L21.2661 29.2213ZM16.7292 28.1306V27.9704C15.6471 27.9704 14.9336 28.2454 14.2812 28.5216C13.6314 28.7966 13.0578 29.0642 12.2212 29.094L12.2269 29.2541L12.2326 29.4141C13.1379 29.3819 13.7653 29.0877 14.406 28.8165C15.0442 28.5464 15.7109 28.2907 16.7292 28.2907V28.1306ZM12.2269 29.2541L12.2204 29.0941C11.3815 29.1278 10.6246 28.7076 9.92331 28.0536C9.22193 27.3995 8.59672 26.5308 8.02117 25.7059L7.88983 25.7976L7.75849 25.8892C8.33226 26.7115 8.97522 27.6074 9.70486 28.2878C10.4346 28.9683 11.2715 29.4528 12.2333 29.4141L12.2269 29.2541ZM7.88983 25.7976L8.02117 25.7059C6.8568 24.0373 5.82413 21.6678 5.3847 19.2027C4.94503 16.7364 5.10257 14.1952 6.29114 12.1661L6.15295 12.0852L6.01477 12.0042C4.77384 14.1227 4.62209 16.7499 5.06937 19.2589C5.51689 21.7693 6.56741 24.1823 7.7585 25.8892L7.88983 25.7976ZM6.15295 12.0852L6.29168 12.1652C7.46274 10.1349 9.56128 8.84997 11.8417 8.81302L11.8391 8.65289L11.8365 8.49277C9.4371 8.53164 7.2383 9.88293 6.01423 12.0052L6.15295 12.0852ZM11.8391 8.65289L11.8421 8.81301C12.6899 8.79726 13.5245 9.08233 14.2982 9.38262C14.6803 9.53095 15.0528 9.685 15.3928 9.80019C15.7326 9.91531 16.0587 9.9985 16.3537 9.9985V9.83835V9.6782C16.1127 9.6782 15.827 9.60911 15.4956 9.49683C15.1644 9.38462 14.806 9.23616 14.4141 9.08403C13.6395 8.7834 12.7528 8.47574 11.8361 8.49277L11.8391 8.65289ZM16.3537 9.83835V9.9985C16.6587 9.9985 17.0147 9.89757 17.3944 9.76248C17.7712 9.62848 18.2107 9.4454 18.6556 9.27932C19.5646 8.94 20.5779 8.63868 21.6098 8.74495L21.6262 8.58564L21.6426 8.42634C20.5327 8.31203 19.4602 8.63707 18.5436 8.97925C18.0757 9.15391 17.6676 9.32537 17.2871 9.46071C16.9097 9.59497 16.599 9.6782 16.3537 9.6782V9.83835ZM21.6262 8.58564L21.6195 8.74564C22.4976 8.7828 24.9425 9.10925 26.5158 11.372L26.6473 11.2806L26.7788 11.1892C25.1196 8.8029 22.547 8.4643 21.633 8.42564L21.6262 8.58564ZM26.6473 11.2806L26.5569 11.1485C26.5569 11.1484 26.5565 11.1487 26.5557 11.1492C26.5549 11.1497 26.5538 11.1504 26.5525 11.1513C26.5497 11.1531 26.5461 11.1554 26.5416 11.1583C26.5329 11.1638 26.5207 11.1715 26.5066 11.1806C26.4779 11.1989 26.4395 11.2237 26.3929 11.2551C26.2998 11.3177 26.1742 11.406 26.0274 11.5203C25.734 11.7487 25.3553 12.0815 24.9814 12.5212C24.2333 13.4012 23.5014 14.7141 23.5183 16.4754L23.6784 16.4739L23.8385 16.4724C23.8068 13.1427 26.6023 11.5054 26.7378 11.4128L26.6473 11.2806ZM23.6784 16.4739L23.5183 16.4756C23.5404 18.5949 24.4797 20.0067 25.4179 20.8874C26.3528 21.7651 27.2875 22.1169 27.318 22.128L27.3727 21.9775L27.4274 21.827C27.4276 21.827 27.4133 21.8217 27.3862 21.8106C27.3593 21.7996 27.3204 21.7831 27.271 21.7607C27.1722 21.716 27.0319 21.6478 26.864 21.5534C26.5278 21.3646 26.0824 21.0719 25.6371 20.6539C24.7484 19.8197 23.8595 18.4866 23.8385 16.4722L23.6784 16.4739ZM20.2254 6.36981L20.3489 6.47179C21.3349 5.27788 21.9908 3.6305 21.8183 1.98332L21.659 2L21.4997 2.01668C21.6614 3.56065 21.0457 5.1251 20.1019 6.26783L20.2254 6.36981ZM21.659 2L21.6528 1.83997C20.225 1.89535 18.503 2.7738 17.4796 3.96691L17.6011 4.07118L17.7227 4.17544C18.6946 3.04234 20.3361 2.21158 21.6652 2.16003L21.659 2ZM17.6011 4.07118L17.4805 3.96589C16.5781 5.00012 15.773 6.67663 15.9986 8.31455L16.1572 8.2927L16.3159 8.27085C16.1072 6.75563 16.8563 5.16851 17.7218 4.17646L17.6011 4.07118ZM16.1572 8.2927L16.1477 8.45256C17.7429 8.54772 19.3629 7.62739 20.3456 6.47365L20.2236 6.36981L20.1017 6.26597C19.1648 7.36598 17.6351 8.22043 16.1667 8.13283L16.1572 8.2927Z"></path>
<defs>
<linearGradient gradientUnits="userSpaceOnUse" y2="25.5652" x2="16.1864" y1="2" x1="16.1864" id="paint0_linear_1672_6578">
<stop stop-color="#CBE0F9"></stop>
<stop stop-color="#384452" offset="1"></stop>
</linearGradient>
<linearGradient gradientUnits="userSpaceOnUse" y2="29.2561" x2="16.1864" y1="2" x1="16.1864" id="paint1_linear_1672_6578">
<stop stop-color="white"></stop>
<stop stop-color="#85BBFF" offset="0.600962"></stop>
<stop stop-opacity="0" stop-color="#6A86AB" offset="1"></stop>
</linearGradient>
</defs>
</svg>
