<svg xmlns="http://www.w3.org/2000/svg" fill="none" viewBox="0 0 16 16" height="16" width="16">
<g clip-path="url(#clip0_6593_33567)">
<path stroke-linejoin="round" stroke-linecap="round" stroke="#2F2725" d="M14.665 11.2749V13.2749C14.6657 13.4605 14.6277 13.6443 14.5533 13.8144C14.479 13.9845 14.3699 14.1372 14.233 14.2628C14.0962 14.3883 13.9347 14.4838 13.7588 14.5433C13.5829 14.6028 13.3966 14.6249 13.2117 14.6082C11.1602 14.3853 9.18966 13.6843 7.45833 12.5615C5.84755 11.538 4.48189 10.1723 3.45833 8.56152C2.33165 6.82233 1.63049 4.84219 1.41166 2.78152C1.395 2.59717 1.41691 2.41136 1.47599 2.23594C1.53508 2.06052 1.63004 1.89932 1.75484 1.7626C1.87964 1.62589 2.03153 1.51666 2.20086 1.44187C2.37018 1.36708 2.55322 1.32836 2.73833 1.32819H4.73833C5.06187 1.32501 5.37552 1.43958 5.62084 1.65054C5.86615 1.86151 6.02638 2.15449 6.07166 2.47486C6.15608 3.1149 6.31263 3.74334 6.53833 4.34819C6.62802 4.58681 6.64744 4.84613 6.59427 5.09544C6.5411 5.34475 6.41757 5.5736 6.23833 5.75486L5.39166 6.60152C6.3407 8.27055 7.72263 9.65249 9.39166 10.6015L10.2383 9.75486C10.4196 9.57561 10.6484 9.45209 10.8977 9.39892C11.1471 9.34575 11.4064 9.36516 11.645 9.45486C12.2498 9.68056 12.8783 9.83711 13.5183 9.92152C13.8422 9.96721 14.1379 10.1303 14.3494 10.3799C14.5608 10.6294 14.6731 10.9479 14.665 11.2749Z"></path>
</g>
<defs>
<clipPath id="clip0_6593_33567">
<rect transform="translate(0 -0.0078125)" fill="white" height="16" width="16"></rect>
</clipPath>
</defs>
</svg>
