<svg xmlns="http://www.w3.org/2000/svg" fill="none" viewBox="0 0 32 32" height="32" width="32">
<path stroke-width="0.160148" stroke="url(#paint1_linear_1672_6574)" fill="url(#paint0_linear_1672_6574)" d="M26.3232 17.0869C26.8257 17.0889 27.2313 17.4962 27.2314 17.998V27.168C27.2314 27.7216 26.7427 28.1476 26.1943 28.0713L15.3115 26.5596C15.0935 26.5293 14.8935 26.421 14.749 26.2549C14.6046 26.0889 14.5254 25.8762 14.5254 25.6562V17.9551C14.5256 17.45 14.9359 17.042 15.4404 17.0439L26.3232 17.0869ZM12.583 16.9863C12.824 16.9876 13.0546 17.084 13.2246 17.2549L13.2852 17.3213C13.4175 17.4833 13.4901 17.6875 13.4902 17.8984V25.2334C13.4901 25.7843 13.0053 26.209 12.459 26.1367L4.71191 25.1113C4.4928 25.0825 4.29119 24.9748 4.14551 24.8086C3.99999 24.6424 3.91985 24.4289 3.91992 24.208V17.8564C3.92016 17.3515 4.33096 16.9429 4.83594 16.9453L12.583 16.9863ZM12.499 6.87793C12.6284 6.85941 12.7604 6.86941 12.8857 6.90625C13.011 6.94319 13.127 7.00635 13.2256 7.0918C13.3242 7.17733 13.4038 7.2827 13.458 7.40137C13.5123 7.52015 13.54 7.64968 13.54 7.78027V15.1387C13.54 15.6393 13.1364 16.0468 12.6357 16.0508L4.83887 16.1123C4.71877 16.1133 4.59959 16.0902 4.48828 16.0449C4.4048 16.0109 4.32652 15.9648 4.25684 15.9082L4.18945 15.8477C4.10404 15.7629 4.03658 15.6619 3.99023 15.5508C3.94396 15.4397 3.91992 15.3205 3.91992 15.2002V8.89355C3.92014 8.44016 4.25377 8.05553 4.70312 7.99121L12.499 6.87793ZM26.1914 4.92871C26.3207 4.91022 26.4529 4.92022 26.5781 4.95703C26.7033 4.99389 26.8193 5.05708 26.918 5.14258C27.0166 5.2282 27.0952 5.33435 27.1494 5.45312C27.2036 5.57198 27.2314 5.70151 27.2314 5.83203V15.0508C27.2314 15.5514 26.8278 15.9589 26.3271 15.9629L15.4443 16.0488C15.3239 16.0498 15.2042 16.0268 15.0928 15.9814C14.9816 15.9361 14.8802 15.8697 14.7949 15.7852C14.7094 15.7004 14.641 15.5994 14.5947 15.4883C14.5485 15.3773 14.5254 15.258 14.5254 15.1377V7.38574C14.5256 6.93243 14.8584 6.54789 15.3076 6.4834L26.1914 4.92871Z"></path>
<defs>
<linearGradient gradientUnits="userSpaceOnUse" y2="24.8854" x2="15.5758" y1="5" x1="15.5758" id="paint0_linear_1672_6574">
<stop stop-color="#CBE0F9"></stop>
<stop stop-color="#384452" offset="1"></stop>
</linearGradient>
<linearGradient gradientUnits="userSpaceOnUse" y2="28" x2="15.5758" y1="5" x1="15.5758" id="paint1_linear_1672_6574">
<stop stop-color="white"></stop>
<stop stop-color="#85BBFF" offset="0.600962"></stop>
<stop stop-opacity="0" stop-color="#6A86AB" offset="1"></stop>
</linearGradient>
</defs>
</svg>
