<svg height="200" width="200" xmlns:xlink="http://www.w3.org/1999/xlink" xmlns="http://www.w3.org/2000/svg" version="1.1" viewBox="0 0 1024 1024" class="icon"><path fill="" d="M788.67 778.7h-67.409c-17.673 0-32-14.327-32-32s14.327-32 32-32h67.409c17.673 0 32 14.327 32 32s-14.327 32-32 32zM461 874H190.608C141.75 874 102 834.25 102 785.392v-537c0-48.859 39.75-88.608 88.608-88.608h625.784c48.859 0 88.608 39.75 88.608 88.608V355c0 17.673-14.327 32-32 32s-32-14.327-32-32V248.392c0-13.569-11.039-24.608-24.608-24.608H190.608c-13.569 0-24.608 11.039-24.608 24.608v537C166 798.961 177.039 810 190.608 810H461c17.673 0 32 14.327 32 32s-14.327 32-32 32z"></path><path fill="" d="M744.045 926.7c-118.141 0-214.254-96.114-214.254-214.254s96.114-214.254 214.254-214.254S958.3 594.305 958.3 712.446 862.186 926.7 744.045 926.7z m0-358.008c-79.266 0-143.754 64.488-143.754 143.754S664.779 856.2 744.045 856.2s143.754-64.488 143.754-143.754-64.487-143.754-143.754-143.754z"></path><path fill="" d="M720.6 770.108c-17.673 0-32-14.327-32-32V670.7c0-17.673 14.327-32 32-32s32 14.327 32 32v67.408c0 17.673-14.328 32-32 32zM162.817 420.998l0.173-64 742.003 2.004-0.173 64zM333.794 98.152h64v213.335h-64zM617.354 99.264h64v213.335h-64zM224 514h221.511v64H224zM226.576 647h221.511v64H226.576z"></path></svg>