<svg width="25" height="24" viewBox="0 0 25 24" fill="none" xmlns="http://www.w3.org/2000/svg">
<path d="M16.9411 20.0013V18.2235C16.9411 17.2805 16.5665 16.3762 15.8997 15.7094C15.2329 15.0426 14.3285 14.668 13.3855 14.668H6.27433C5.33133 14.668 4.42695 15.0426 3.76015 15.7094C3.09335 16.3762 2.71875 17.2805 2.71875 18.2235V20.0013" stroke="#2F2725" stroke-width="1.5" stroke-linecap="round" stroke-linejoin="round"></path>
<path d="M9.83683 11.1112C11.8005 11.1112 13.3924 9.51927 13.3924 7.55558C13.3924 5.59189 11.8005 4 9.83683 4C7.87314 4 6.28125 5.59189 6.28125 7.55558C6.28125 9.51927 7.87314 11.1112 9.83683 11.1112Z" stroke="#2F2725" stroke-width="1.5" stroke-linecap="round" stroke-linejoin="round"></path>
<path d="M22.2761 20.001V18.2232C22.2755 17.4354 22.0133 16.6701 21.5306 16.0475C21.0479 15.4249 20.3722 14.9802 19.6094 14.7832" stroke="#2F2725" stroke-width="1.5" stroke-linecap="round" stroke-linejoin="round"></path>
<path d="M16.0547 4.11719C16.8195 4.31301 17.4974 4.75781 17.9815 5.38147C18.4656 6.00513 18.7283 6.77216 18.7283 7.56165C18.7283 8.35114 18.4656 9.11818 17.9815 9.74183C17.4974 10.3655 16.8195 10.8103 16.0547 11.0061" stroke="#2F2725" stroke-width="1.5" stroke-linecap="round" stroke-linejoin="round"></path>
</svg>
