<svg xmlns="http://www.w3.org/2000/svg" width="17" height="16" viewBox="0 0 17 16" fill="none">
<path fill-rule="evenodd" clip-rule="evenodd" d="M12.3889 3.72222H13.1667C14.4578 3.72222 15.5 4.76444 15.5 6.05556V12.2778C15.5 13.5689 14.4578 14.6111 13.1667 14.6111H3.83333C2.54222 14.6111 1.5 13.5689 1.5 12.2778V2.94444C1.5 2.42875 1.70486 1.93417 2.06951 1.56951C2.43417 1.20486 2.92875 1 3.44444 1H10.4444C10.6998 1 10.9526 1.05029 11.1885 1.14801C11.4245 1.24573 11.6388 1.38896 11.8194 1.56951C11.9999 1.75007 12.1432 1.96443 12.2409 2.20034C12.3386 2.43625 12.3889 2.6891 12.3889 2.94444V3.72222ZM10.4444 2.16667H3.44444C3.01667 2.16667 2.66667 2.51667 2.66667 2.94444C2.66667 3.37222 3.01667 3.72222 3.44444 3.72222H11.2222V2.94444C11.2222 2.51667 10.8722 2.16667 10.4444 2.16667ZM14.3333 11.8889V8.38889V6.44444C14.3333 5.58889 13.6333 4.88889 12.7778 4.88889H3.44444C3.16444 4.88889 2.90778 4.82667 2.66667 4.72556V11.8889C2.66667 12.7444 3.36667 13.4444 4.22222 13.4444H12.7778C13.6333 13.4444 14.3333 12.7444 14.3333 11.8889ZM9.0697 7.40285C9.43436 7.03819 9.92894 6.83333 10.4446 6.83333C10.9603 6.83333 11.4549 7.03819 11.8196 7.40285C12.1842 7.7675 12.3891 8.26208 12.3891 8.77778C12.3891 9.29348 12.1842 9.78805 11.8196 10.1527C11.4549 10.5174 10.9603 10.7222 10.4446 10.7222C9.92894 10.7222 9.43436 10.5174 9.0697 10.1527C8.70505 9.78805 8.50019 9.29348 8.50019 8.77778C8.50019 8.26208 8.70505 7.7675 9.0697 7.40285ZM9.66686 8.77778C9.66686 9.20555 10.0169 9.55556 10.4446 9.55556C10.8724 9.55556 11.2224 9.20555 11.2224 8.77778C11.2224 8.35 10.8724 8 10.4446 8C10.0169 8 9.66686 8.35 9.66686 8.77778Z" fill="black"/>
</svg>