<svg viewBox="0 0 60 60" xmlns="http://www.w3.org/2000/svg" data-sanitized-data-name="图层 1" data-name="图层 1" id="图层_1"><defs><style>.cls-1{fill-rule:evenodd;}.cls-2{fill:#fff;}</style></defs><title>社交媒体logo</title><path d="M30,4.51A25.88,25.88,0,1,1,4.12,30.39,25.88,25.88,0,0,1,30,4.51Z" class="cls-1"></path><path d="M24.3,30.4A5.7,5.7,0,1,1,30,36.09,5.69,5.69,0,0,1,24.3,30.4Zm-3.09,0A8.79,8.79,0,1,0,30,21.6a8.78,8.78,0,0,0-8.77,8.81Zm15.85-9.17a2.06,2.06,0,1,0,2-2A2.05,2.05,0,0,0,37.06,21.24Zm-14,23.09a9.4,9.4,0,0,1-3.17-.58,5.29,5.29,0,0,1-2-1.28,5.36,5.36,0,0,1-1.29-2,9.47,9.47,0,0,1-.59-3.18C16,35.53,16,35,16,30.42s0-5.11.09-6.92a9.54,9.54,0,0,1,.58-3.18,5.68,5.68,0,0,1,3.24-3.25,9.22,9.22,0,0,1,3.18-.59c1.8-.09,2.34-.11,6.91-.12s5.11,0,6.92.09a9.46,9.46,0,0,1,3.17.58,5.73,5.73,0,0,1,3.26,3.24,9.73,9.73,0,0,1,.59,3.18c.09,1.8.11,2.34.12,6.91s0,5.11-.09,6.92a9.46,9.46,0,0,1-.58,3.17,5.29,5.29,0,0,1-1.28,2,5.36,5.36,0,0,1-2,1.29,9.73,9.73,0,0,1-3.18.59c-1.8.09-2.34.11-6.91.12s-5.11,0-6.92-.09Zm-.2-30.93a12.28,12.28,0,0,0-4.15.8,8.79,8.79,0,0,0-5,5A12.63,12.63,0,0,0,13,23.37c-.08,1.82-.1,2.41-.09,7.05s0,5.23.12,7.06a12.54,12.54,0,0,0,.8,4.15,8.45,8.45,0,0,0,2,3,8.33,8.33,0,0,0,3,2,12.63,12.63,0,0,0,4.16.79c1.82.08,2.41.1,7.05.09s5.23,0,7.06-.12a12.8,12.8,0,0,0,4.15-.8,8.37,8.37,0,0,0,3-2,8.28,8.28,0,0,0,2-3A12.51,12.51,0,0,0,47,37.41c.08-1.82.1-2.41.09-7s0-5.23-.12-7.06a12.54,12.54,0,0,0-.8-4.15,8.71,8.71,0,0,0-5-5A12.63,12.63,0,0,0,37,13.37c-1.82-.08-2.41-.1-7.05-.09s-5.23,0-7.06.12Z" class="cls-2"></path></svg>