<svg viewBox="0 0 60 60" xmlns="http://www.w3.org/2000/svg" data-sanitized-data-name="图层 1" data-name="图层 1" id="图层_1"><defs><style>.cls-1{fill:#0866ff;}.cls-2{fill:#fff;}</style></defs><title>社交媒体logo</title><path d="M55.84,29.71A25.84,25.84,0,1,0,23.76,54.79V37.61H18.43v-7.9h5.33v-3.4c0-8.8,4-12.87,12.61-12.87a28.62,28.62,0,0,1,5.62.64v7.16c-.61-.07-1.67-.1-3-.1-4.23,0-5.87,1.61-5.87,5.78v2.79h8.44l-1.45,7.9h-7V55.36A25.85,25.85,0,0,0,55.84,29.71Z" class="cls-1"></path><path d="M40.12,37.61l1.45-7.9H33.13V26.92c0-4.17,1.64-5.78,5.87-5.78,1.32,0,2.38,0,3,.1V14.08a28.62,28.62,0,0,0-5.62-.64c-8.63,0-12.61,4.08-12.61,12.87v3.4H18.43v7.9h5.33V54.79a26.2,26.2,0,0,0,6.24.76,27,27,0,0,0,3.13-.19V37.61Z" class="cls-2"></path></svg>