<svg xmlns="http://www.w3.org/2000/svg" width="17" height="16" viewBox="0 0 17 16" fill="none">
<path d="M10.9239 2.54541H1.83301V10.4242H10.9239V2.54541Z" stroke="#2F2725" stroke-width="1.2" stroke-linecap="round" stroke-linejoin="round"/>
<path d="M10.9219 5.57556H13.3461L15.1643 7.39374V10.424H10.9219V5.57556Z" stroke="#2F2725" stroke-width="1.2" stroke-linecap="round" stroke-linejoin="round"/>
<path d="M4.56203 13.4547C5.39882 13.4547 6.07718 12.7764 6.07718 11.9396C6.07718 11.1028 5.39882 10.4244 4.56203 10.4244C3.72523 10.4244 3.04688 11.1028 3.04688 11.9396C3.04688 12.7764 3.72523 13.4547 4.56203 13.4547Z" stroke="#2F2725" stroke-width="1.2" stroke-linecap="round" stroke-linejoin="round"/>
<path d="M12.437 13.4547C13.2738 13.4547 13.9522 12.7764 13.9522 11.9396C13.9522 11.1028 13.2738 10.4244 12.437 10.4244C11.6002 10.4244 10.9219 11.1028 10.9219 11.9396C10.9219 12.7764 11.6002 13.4547 12.437 13.4547Z" stroke="#2F2725" stroke-width="1.2" stroke-linecap="round" stroke-linejoin="round"/>
</svg>